<svg width="1024" height="1025" viewBox="0 0 1024 1025" fill="none" xmlns="http://www.w3.org/2000/svg">
<g filter="url(#filter0_d_303_2)">
<path fill-rule="evenodd" clip-rule="evenodd" d="M163.665 193.374L124.5 164.109V213V521.215C141.257 522.702 157.626 525.536 173.5 529.608V261.891L314.335 367.126L320.858 372H329H721H729.173L735.709 367.093L875 262.527V347.5V599.8C875 632.967 874.981 656.369 873.487 674.65C872.017 692.645 869.241 703.51 864.918 711.994C856.05 729.399 841.899 743.55 824.494 752.418C816.01 756.741 805.145 759.517 787.15 760.987C768.869 762.481 745.467 762.5 712.3 762.5H397.213C400.615 778.411 402.784 794.78 403.616 811.5H712.3H713.367H713.369C745.226 811.5 770.63 811.5 791.14 809.825C812.166 808.107 830.196 804.507 846.74 796.077C873.365 782.511 895.011 760.865 908.577 734.24C917.007 717.696 920.607 699.666 922.325 678.64C924 658.13 924 632.726 924 600.869V600.867V599.8V347.5V213.5V164.473L884.791 193.907L712.827 323H337.142L163.665 193.374Z" fill="black"/>
<path d="M124 548C263.728 548 377 661.272 377 801V812H328V801C328 688.334 236.666 597 124 597V548Z" fill="black"/>
<path d="M124 634C211.813 634 283 705.187 283 793V812H238.48V792.98C238.48 729.754 187.226 678.5 124 678.5V634Z" fill="black"/>
<path d="M124 723C167.63 723 203 758.37 203 802V812H180.88V802.13C180.88 770.716 155.414 745.25 124 745.25V723Z" fill="black"/>
<path d="M124 732L172.4 747.2L184 812H124V732Z" fill="black"/>
<circle cx="442.63" cy="483.942" r="35.9423" fill="black"/>
<circle cx="621.058" cy="483.942" r="35.9423" fill="black"/>
<path d="M657 663.87V647.825C657 612.023 627.977 583 592.175 583C556.374 583 527.351 612.023 527.351 647.825V663.87M519.649 663.87V647.825C519.649 612.023 490.626 583 454.825 583C419.023 583 390 612.023 390 647.825V663.87" stroke="black" stroke-width="49"/>
</g>
<defs>
<filter id="filter0_d_303_2" x="-25.3" y="-18.3" width="1074.6" height="1075.6" filterUnits="userSpaceOnUse" color-interpolation-filters="sRGB">
<feFlood flood-opacity="0" result="BackgroundImageFix"/>
<feColorMatrix in="SourceAlpha" type="matrix" values="0 0 0 0 0 0 0 0 0 0 0 0 0 0 0 0 0 0 127 0" result="hardAlpha"/>
<feOffset dy="7"/>
<feGaussianBlur stdDeviation="12.65"/>
<feComposite in2="hardAlpha" operator="out"/>
<feColorMatrix type="matrix" values="0 0 0 0 0 0 0 0 0 0 0 0 0 0 0 0 0 0 0.25 0"/>
<feBlend mode="normal" in2="BackgroundImageFix" result="effect1_dropShadow_303_2"/>
<feBlend mode="normal" in="SourceGraphic" in2="effect1_dropShadow_303_2" result="shape"/>
</filter>
</defs>
</svg>
