<?xml version="1.0" standalone="no"?>
<!DOCTYPE svg PUBLIC "-//W3C//DTD SVG 20010904//EN"
 "http://www.w3.org/TR/2001/REC-SVG-20010904/DTD/svg10.dtd">
<svg version="1.0" xmlns="http://www.w3.org/2000/svg"
 width="700.000000pt" height="700.000000pt" viewBox="0 0 700.000000 700.000000"
 preserveAspectRatio="xMidYMid meet">
<metadata>
Created by potrace 1.14, written by Peter Selinger 2001-2017
</metadata>
<g transform="translate(0.000000,700.000000) scale(0.100000,-0.100000)"
fill="#000000" stroke="none">
<path d="M854 5692 c1 -103 -2 -195 -6 -204 -5 -9 -5 -19 -1 -21 7 -5 9 -276
3 -302 -1 -5 -1 -14 0 -20 8 -38 3 -556 -5 -559 -7 -3 -7 -5 0 -5 9 -1 13
-183 5 -216 -1 -5 -1 -12 0 -15 6 -15 2 -658 -4 -668 -4 -7 -4 -12 1 -12 12 0
10 -114 -2 -122 -7 -5 -6 -8 1 -8 6 0 9 -18 7 -45 -4 -55 8 -65 83 -65 25 0
33 -4 28 -12 -5 -10 -4 -10 5 -2 16 15 113 -4 104 -20 -4 -8 -2 -8 6 0 10 9
25 8 62 -1 l49 -13 0 736 c1 406 1 817 1 915 l-1 178 48 -37 c26 -21 53 -45
60 -53 6 -8 12 -12 12 -8 0 6 187 -127 200 -143 3 -3 24 -19 47 -36 24 -17 41
-33 38 -36 -3 -2 1 -5 8 -5 11 0 155 -103 201 -145 11 -10 24 -18 28 -18 5 0
6 -6 2 -12 -4 -7 -4 -10 1 -6 11 11 47 -11 39 -24 -4 -6 -3 -8 3 -5 12 8 78
-39 78 -56 0 -7 8 -11 17 -9 9 1 24 -8 32 -20 9 -12 16 -19 16 -14 0 5 9 -1
19 -13 11 -12 22 -22 25 -21 15 2 55 -33 49 -44 -3 -6 -3 -8 1 -4 5 4 26 -4
47 -18 l39 -24 1394 0 c919 0 1397 3 1401 10 3 6 11 10 16 10 6 0 7 -5 3 -12
-4 -7 -3 -8 5 -4 6 4 9 11 6 16 -7 11 35 41 47 34 5 -3 7 -1 6 4 -2 6 0 9 4 9
4 -1 15 8 23 21 16 22 42 32 29 10 -4 -7 -3 -8 5 -4 6 4 9 11 6 16 -7 11 35
41 47 34 5 -3 7 -1 6 4 -4 14 102 93 114 86 5 -3 7 0 6 8 -2 7 5 12 14 12 10
-1 15 2 13 7 -3 4 7 16 22 26 15 10 30 20 33 23 3 3 32 25 65 49 33 25 62 48
63 53 2 4 10 8 17 8 7 0 15 3 17 8 5 12 122 97 131 94 4 -1 7 2 7 7 0 8 145
121 156 121 3 0 2 -5 -2 -12 -4 -7 -3 -8 5 -4 6 4 9 11 6 16 -4 7 96 90 110
90 10 0 3 -2698 -7 -2785 -11 -99 -14 -128 -16 -161 -1 -14 -6 -22 -12 -19 -5
3 -7 0 -4 -9 12 -32 -97 -223 -119 -209 -6 3 -7 2 -4 -4 9 -15 -69 -87 -84
-78 -7 5 -10 4 -5 -3 12 -20 -119 -93 -190 -106 -16 -2 -39 -7 -51 -10 -77
-17 -324 -26 -342 -12 -11 8 -13 8 -7 -1 4 -8 1 -13 -8 -13 -9 0 -16 6 -16 13
0 8 -3 8 -8 2 -10 -15 -333 -17 -351 -2 -11 9 -13 9 -8 0 10 -16 -452 -16
-472 1 -11 8 -13 8 -8 -1 10 -16 -452 -16 -472 1 -11 8 -13 8 -8 -1 10 -16
-452 -16 -472 1 -11 8 -13 8 -8 -1 6 -9 -60 -12 -270 -11 -340 0 -326 0 -318
-12 14 -22 33 -165 23 -171 -7 -4 -6 -8 1 -10 6 -2 13 -33 15 -69 3 -36 5 -67
5 -70 1 -6 2520 -3 2537 4 7 3 15 0 18 -7 3 -8 7 -9 13 -2 4 6 19 11 33 11
207 8 366 54 516 150 40 25 55 30 65 21 11 -10 11 -9 1 4 -10 14 -6 20 25 42
21 15 44 36 51 47 7 11 17 18 23 15 5 -4 8 -3 7 2 -2 5 10 22 25 38 33 35 105
143 134 200 44 85 58 127 70 207 3 21 8 38 12 38 3 0 6 17 7 38 0 20 3 73 7
117 4 44 7 140 8 213 2 87 6 132 13 132 8 0 8 3 1 8 -15 10 -16 52 -2 52 8 0
9 3 1 8 -14 10 -14 182 0 182 8 0 8 2 0 8 -6 4 -11 30 -11 57 0 28 5 53 11 57
8 6 8 8 0 8 -14 0 -16 108 -2 116 5 3 5 11 0 17 -13 18 -13 59 0 51 7 -5 8 -2
2 7 -13 20 -13 113 0 121 8 6 8 8 0 8 -7 0 -12 16 -12 36 0 28 3 34 17 30 14
-5 14 -5 0 6 -18 15 -21 79 -5 90 8 6 8 8 0 8 -15 0 -14 180 0 180 8 0 8 3 0
8 -6 4 -11 30 -11 57 0 28 5 53 11 57 8 5 8 8 0 8 -7 0 -12 16 -12 36 0 28 3
34 17 30 14 -5 14 -5 0 6 -18 15 -21 79 -5 90 8 6 8 8 0 8 -15 0 -14 180 0
180 8 0 8 3 0 8 -6 4 -11 30 -11 57 0 28 5 53 11 57 8 6 8 8 0 8 -14 0 -16
108 -3 116 5 3 6 11 2 17 -12 19 -11 171 1 179 8 6 8 8 0 8 -7 0 -12 16 -12
36 0 28 3 34 17 30 14 -5 14 -5 0 6 -18 15 -21 79 -5 90 8 6 8 8 0 8 -15 0
-14 172 0 182 7 5 7 8 -1 8 -7 0 -13 5 -13 11 0 5 5 7 12 3 8 -5 8 -3 2 7 -13
20 -13 172 0 181 8 6 8 8 0 8 -12 0 -13 59 -1 77 4 6 3 14 -2 17 -5 4 -9 31
-9 61 1 36 5 52 12 48 7 -5 7 -2 0 8 -16 20 -13 52 5 67 15 11 15 12 0 7 -14
-5 -16 12 -15 150 1 85 -2 155 -5 155 -9 0 -103 -72 -107 -82 -2 -4 -10 -8
-17 -8 -7 0 -15 -3 -17 -7 -6 -14 -162 -126 -174 -126 -7 0 -11 -3 -9 -7 6 -9
-87 -76 -100 -72 -5 2 -7 1 -3 -3 4 -4 -16 -25 -45 -46 -29 -21 -63 -47 -77
-57 -126 -97 -203 -152 -210 -152 -5 0 -10 -4 -12 -9 -5 -14 -221 -174 -235
-174 -7 0 -9 -5 -6 -10 4 -6 0 -8 -10 -4 -10 4 -14 1 -12 -6 2 -7 -41 -43 -95
-82 -54 -38 -99 -73 -100 -77 0 -5 -7 -8 -15 -8 -8 0 -15 -3 -15 -7 0 -5 -17
-19 -38 -33 -20 -14 -48 -35 -62 -47 -14 -13 -30 -23 -36 -23 -7 0 -15 -7 -18
-16 -3 -8 -10 -12 -16 -9 -5 3 -10 2 -10 -4 0 -5 -9 -9 -20 -8 -11 1 -20 6
-20 12 0 7 -3 7 -8 0 -10 -14 -215 -15 -224 -1 -5 8 -8 8 -8 0 0 -13 -68 -15
-76 -3 -3 5 -11 6 -17 2 -19 -12 -187 -11 -187 1 0 7 -3 6 -8 -1 -8 -13 -59
-12 -81 1 -9 6 -12 5 -8 -1 8 -13 -216 -12 -225 2 -5 6 -8 6 -8 -2 0 -14 -56
-13 -79 1 -9 6 -12 5 -8 -1 8 -13 -246 -12 -255 2 -5 7 -8 7 -8 -1 0 -13 -60
-15 -77 -2 -6 5 -14 5 -17 0 -6 -11 -116 -10 -133 1 -6 4 -14 3 -17 -2 -7 -11
-25 -9 -45 3 -9 6 -12 5 -8 -1 8 -13 -136 -12 -145 2 -5 6 -8 6 -8 -2 0 -14
-56 -13 -79 1 -9 6 -12 5 -8 -1 7 -11 -151 -12 -169 -1 -6 4 -14 4 -18 0 -12
-12 -226 -10 -226 2 0 7 -3 8 -8 1 -9 -13 -70 -17 -77 -4 -4 5 -12 6 -18 2 -7
-4 -70 -8 -140 -9 -96 -1 -132 2 -142 12 -7 8 -17 14 -20 14 -13 0 -70 53 -67
62 1 5 -2 7 -7 4 -7 -4 -466 328 -561 407 -8 7 -30 23 -48 35 -18 13 -30 28
-27 33 4 5 0 6 -7 4 -8 -3 -23 3 -33 13 -11 10 -41 32 -67 50 -26 18 -51 40
-56 48 -5 9 -12 15 -16 14 -6 -1 -114 74 -161 113 -12 9 -309 231 -346 257
l-26 19 1 -187z"/>
<path d="M1256 5098 c3 -5 10 -6 15 -3 13 9 11 12 -6 12 -8 0 -12 -4 -9 -9z"/>
<path d="M5946 5078 c3 -5 10 -6 15 -3 13 9 11 12 -6 12 -8 0 -12 -4 -9 -9z"/>
<path d="M6350 5040 c0 -5 5 -10 11 -10 5 0 7 5 4 10 -3 6 -8 10 -11 10 -2 0
-4 -4 -4 -10z"/>
<path d="M2026 4522 c-3 -5 1 -9 9 -9 8 0 12 4 9 9 -3 4 -7 8 -9 8 -2 0 -6 -4
-9 -8z"/>
<path d="M2313 4435 c0 -8 4 -12 9 -9 5 3 6 10 3 15 -9 13 -12 11 -12 -6z"/>
<path d="M2635 4400 c-3 -5 -1 -10 4 -10 6 0 11 5 11 10 0 6 -2 10 -4 10 -3 0
-8 -4 -11 -10z"/>
<path d="M2996 4402 c-3 -5 1 -9 9 -9 8 0 12 4 9 9 -3 4 -7 8 -9 8 -2 0 -6 -4
-9 -8z"/>
<path d="M3145 4400 c-3 -6 1 -7 9 -4 18 7 21 14 7 14 -6 0 -13 -4 -16 -10z"/>
<path d="M3476 4402 c-3 -5 1 -9 9 -9 8 0 12 4 9 9 -3 4 -7 8 -9 8 -2 0 -6 -4
-9 -8z"/>
<path d="M3626 4402 c-3 -5 1 -9 9 -9 8 0 12 4 9 9 -3 4 -7 8 -9 8 -2 0 -6 -4
-9 -8z"/>
<path d="M3956 4402 c-3 -5 1 -9 9 -9 8 0 12 4 9 9 -3 4 -7 8 -9 8 -2 0 -6 -4
-9 -8z"/>
<path d="M4106 4402 c-3 -5 1 -9 9 -9 8 0 12 4 9 9 -3 4 -7 8 -9 8 -2 0 -6 -4
-9 -8z"/>
<path d="M4436 4402 c-3 -5 1 -9 9 -9 8 0 12 4 9 9 -3 4 -7 8 -9 8 -2 0 -6 -4
-9 -8z"/>
<path d="M4585 4400 c-3 -6 1 -7 9 -4 18 7 21 14 7 14 -6 0 -13 -4 -16 -10z"/>
<path d="M6350 4240 c0 -5 5 -10 11 -10 5 0 7 5 4 10 -3 6 -8 10 -11 10 -2 0
-4 -4 -4 -10z"/>
<path d="M2945 3928 c-16 -6 -38 -17 -47 -25 -9 -8 -22 -12 -28 -8 -6 3 -9 2
-8 -3 2 -5 -9 -23 -24 -40 -60 -68 -73 -184 -29 -270 22 -42 95 -112 118 -112
8 0 12 -4 9 -8 -2 -4 32 -8 77 -7 64 0 91 5 124 22 22 12 44 19 48 15 4 -4 5
-2 3 3 -4 13 47 76 56 69 3 -2 4 -1 1 2 -2 4 2 22 10 41 18 42 19 117 4 164
-19 54 -70 116 -119 140 -51 26 -148 35 -195 17z"/>
<path d="M4144 3916 c-56 -26 -120 -93 -129 -137 -4 -16 -10 -31 -14 -33 -13
-8 7 -124 29 -165 56 -110 197 -161 309 -111 50 23 55 24 45 8 -5 -7 -3 -8 5
-4 7 5 10 11 7 14 -10 9 46 62 57 55 6 -3 7 -1 4 4 -4 6 0 24 8 39 8 16 15 37
15 47 0 9 4 17 8 17 13 0 -4 113 -22 148 -9 18 -14 38 -10 45 4 7 3 9 -1 4
-11 -9 -46 23 -39 35 3 4 2 8 -3 7 -4 -1 -33 10 -63 24 -71 34 -137 35 -206 3z"/>
<path d="M6350 3760 c0 -5 5 -10 11 -10 5 0 7 5 4 10 -3 6 -8 10 -11 10 -2 0
-4 -4 -4 -10z"/>
<path d="M2910 3416 c0 -2 8 -10 18 -17 15 -13 16 -12 3 4 -13 16 -21 21 -21
13z"/>
<path d="M850 3096 c0 -91 4 -167 9 -170 5 -3 53 -8 107 -11 54 -2 100 -8 102
-13 1 -4 16 -7 33 -6 19 1 32 -3 36 -13 4 -10 8 -11 13 -3 8 13 100 -8 100
-23 0 -4 4 -6 9 -3 13 8 152 -44 146 -54 -3 -5 3 -7 12 -5 30 4 227 -110 217
-126 -3 -5 1 -6 9 -4 16 7 153 -107 149 -124 -1 -7 2 -10 8 -6 14 8 72 -54 63
-68 -3 -5 -1 -7 5 -3 13 8 84 -73 75 -87 -3 -6 -1 -7 5 -3 11 7 35 -26 27 -38
-3 -3 -2 -4 2 -1 7 5 73 -88 73 -104 0 -5 4 -11 8 -13 11 -4 82 -154 82 -172
0 -8 5 -18 11 -22 6 -3 9 -15 6 -25 -3 -11 -1 -17 4 -13 8 5 13 -12 12 -43 -1
-7 3 -13 7 -13 8 0 10 -6 34 -125 13 -67 21 -127 31 -250 0 -11 -3 -26 -8 -32
-6 -8 -6 -13 0 -13 5 0 9 -12 9 -27 l-1 -28 112 0 c61 0 109 -4 106 -8 -3 -5
3 -5 13 0 11 5 39 8 63 7 l43 -3 -7 142 c-10 176 -11 186 -18 217 -4 14 -8 39
-11 57 -2 18 -9 48 -16 68 -6 20 -9 43 -6 51 3 8 2 13 -2 10 -5 -3 -14 18 -22
47 -7 29 -22 72 -32 96 -10 25 -16 51 -14 58 3 8 2 12 -3 9 -4 -3 -21 23 -36
57 -16 34 -52 102 -82 151 -29 49 -50 93 -47 97 3 5 0 8 -6 7 -7 -2 -17 6 -23
16 -7 11 -20 29 -29 39 -10 11 -15 24 -12 29 3 5 2 7 -3 6 -5 -2 -26 17 -48
42 -124 143 -309 299 -435 368 -91 50 -196 102 -208 102 -7 0 -10 5 -6 12 4 7
3 8 -4 4 -6 -4 -28 1 -49 10 -35 15 -181 59 -228 69 -139 30 -160 32 -291 40
l-94 5 0 -164z"/>
<path d="M2504 3118 c-8 -12 -1 -247 7 -243 5 4 32 -76 34 -100 0 -6 11 -25
24 -43 20 -28 21 -35 9 -50 -12 -15 -11 -16 4 -4 15 12 19 10 32 -15 40 -79
193 -192 299 -223 26 -8 47 -17 47 -20 0 -3 21 -6 47 -8 26 -1 50 -7 54 -13 4
-8 8 -7 11 2 4 11 10 11 32 1 15 -7 24 -8 21 -2 -4 6 12 10 39 11 25 1 49 2
54 3 86 19 168 53 237 100 33 22 64 39 68 38 5 -1 6 1 3 6 -3 5 8 21 24 37
l29 27 38 -37 c21 -21 48 -44 60 -52 13 -8 20 -20 16 -26 -3 -6 -1 -7 5 -3 7
4 12 2 12 -3 0 -6 4 -10 8 -8 11 3 136 -55 140 -66 2 -4 8 -5 12 -2 5 3 30 0
57 -6 75 -17 233 -12 287 10 16 7 36 9 45 6 8 -3 12 -3 9 0 -4 4 23 22 60 41
37 18 90 53 118 78 28 25 54 43 58 41 3 -3 4 -2 1 1 -8 11 36 65 47 58 6 -4 8
-2 5 3 -4 6 7 35 23 64 16 30 37 77 46 104 9 28 19 55 23 60 3 6 4 21 2 34 -2
16 1 21 10 16 8 -6 10 -4 3 6 -13 21 -15 47 -4 54 6 4 7 11 4 17 -4 6 -7 34
-6 62 l0 52 -168 0 -168 1 2 -31 c1 -17 -2 -37 -7 -43 -6 -9 -5 -13 3 -13 10
0 10 -3 0 -15 -7 -8 -8 -15 -3 -15 16 0 -7 -96 -28 -118 -10 -11 -16 -22 -13
-24 8 -9 -67 -78 -109 -100 -30 -16 -60 -22 -107 -23 -73 0 -124 11 -115 25 3
5 -1 7 -9 4 -19 -7 -79 34 -70 48 4 6 2 8 -4 4 -15 -9 -69 73 -80 121 -5 21
-9 71 -8 109 l1 71 -195 -1 -194 -1 -2 -88 c-2 -73 -7 -96 -31 -143 -51 -102
-143 -154 -260 -149 -64 3 -140 33 -136 54 2 5 -3 8 -11 5 -16 -6 -58 44 -49
59 3 6 1 7 -6 3 -7 -5 -18 8 -31 36 -23 53 -33 125 -18 130 8 3 8 9 2 19 -5 8
-10 23 -10 34 -1 11 -2 25 -3 30 -1 13 -320 16 -327 3z"/>
<path d="M1393 2755 c0 -8 4 -12 9 -9 5 3 6 10 3 15 -9 13 -12 11 -12 -6z"/>
<path d="M852 2519 c2 -123 6 -153 17 -151 7 1 20 -3 29 -10 9 -7 13 -8 9 -2
-4 8 10 8 51 2 109 -16 250 -66 234 -83 -4 -5 -1 -5 6 -1 21 12 159 -83 144
-99 -4 -5 -2 -5 4 -2 14 8 47 -26 37 -38 -5 -4 -2 -5 5 -1 14 8 50 -31 44 -47
-1 -5 2 -6 7 -3 13 8 64 -62 55 -76 -4 -6 -3 -8 3 -5 13 8 46 -50 37 -65 -4
-6 -3 -8 3 -5 13 8 36 -41 27 -55 -4 -6 -3 -8 3 -5 11 7 35 -61 27 -75 -3 -4
-1 -8 4 -8 14 0 31 -132 31 -230 0 -47 0 -90 0 -96 1 -8 27 -11 77 -10 41 1
78 -2 81 -7 2 -4 10 -4 16 0 7 5 37 8 68 8 44 -1 59 3 68 17 6 10 8 18 3 18
-10 0 -8 132 2 148 4 7 3 12 -2 12 -5 0 -9 6 -9 13 -3 45 -15 121 -28 177 -20
85 -18 78 -62 179 -12 29 -20 58 -16 64 3 6 1 7 -5 3 -7 -4 -12 -3 -12 3 0 5
-27 49 -59 98 -102 152 -251 286 -403 362 -15 8 -25 18 -22 22 3 5 -2 6 -10 3
-8 -3 -29 2 -47 12 -71 36 -220 71 -342 81 l-78 6 3 -154z"/>
<path d="M2633 2565 c0 -8 4 -12 9 -9 5 3 6 10 3 15 -9 13 -12 11 -12 -6z"/>
<path d="M2656 2522 c-3 -5 1 -9 9 -9 8 0 12 4 9 9 -3 4 -7 8 -9 8 -2 0 -6 -4
-9 -8z"/>
<path d="M4390 2466 c0 -2 7 -7 16 -10 8 -3 12 -2 9 4 -6 10 -25 14 -25 6z"/>
<path d="M1196 2233 c-6 -14 -5 -15 5 -6 7 7 10 15 7 18 -3 3 -9 -2 -12 -12z"/>
<path d="M848 1803 c-2 -142 -1 -279 2 -304 l5 -46 268 0 267 1 1 55 c1 31 0
61 -1 66 -1 6 -8 35 -15 65 -31 135 -94 229 -221 330 -51 41 -197 90 -268 90
l-35 0 -3 -257z"/>
<path d="M1436 1633 c-6 -14 -5 -15 5 -6 7 7 10 15 7 18 -3 3 -9 -2 -12 -12z"/>
<path d="M5150 1439 c0 -5 5 -7 10 -4 6 3 10 8 10 11 0 2 -4 4 -10 4 -5 0 -10
-5 -10 -11z"/>
<path d="M3270 1400 c0 -5 5 -10 11 -10 5 0 7 5 4 10 -3 6 -8 10 -11 10 -2 0
-4 -4 -4 -10z"/>
<path d="M3590 1400 c0 -5 5 -10 11 -10 5 0 7 5 4 10 -3 6 -8 10 -11 10 -2 0
-4 -4 -4 -10z"/>
<path d="M4530 1401 c0 -6 4 -13 10 -16 6 -3 7 1 4 9 -7 18 -14 21 -14 7z"/>
<path d="M1066 1362 c-3 -5 1 -9 9 -9 8 0 12 4 9 9 -3 4 -7 8 -9 8 -2 0 -6 -4
-9 -8z"/>
<path d="M3476 1358 c3 -5 10 -6 15 -3 13 9 11 12 -6 12 -8 0 -12 -4 -9 -9z"/>
<path d="M3796 1358 c3 -5 10 -6 15 -3 13 9 11 12 -6 12 -8 0 -12 -4 -9 -9z"/>
</g>
</svg>
